HIERARCHY
ROOT Root
{
  OFFSET 0.0 0.0 0.0
  CHANNELS 6 Xposition Yposition Zposition Zrotation Yrotation Xrotation
  JOINT Hips
  {
    OFFSET 0.0 100.0 0.0
    CHANNELS 6 Xposition Yposition Zposition Zrotation Yrotation Xrotation
    JOINT Spine1
    {
      OFFSET -0.013727 5.003763 -0.053727
      CHANNELS 3 Zrotation Yrotation Xrotation
      JOINT Spine2
      {
        OFFSET -0.0 7.125301 -0.029825
        CHANNELS 3 Zrotation Yrotation Xrotation
        JOINT Chest
        {
          OFFSET -1e-06 7.550063 -0.815971
          CHANNELS 3 Zrotation Yrotation Xrotation
          JOINT Neck1
          {
            OFFSET -0.181677 26.311295 -0.553348
            CHANNELS 3 Zrotation Yrotation Xrotation
            JOINT Neck2
            {
              OFFSET -3e-06 7.709397 2.302585
              CHANNELS 3 Zrotation Yrotation Xrotation
              JOINT Head
              {
                OFFSET -5e-06 6.128916 1.953709
                CHANNELS 3 Zrotation Yrotation Xrotation
                JOINT HeadEnd
                {
                  OFFSET 0.003598 16.065403 -1.835379
                  CHANNELS 3 Zrotation Yrotation Xrotation
                }
                JOINT Jaw
                {
                  OFFSET 0.002637 0.475592 3.094941
                  CHANNELS 3 Zrotation Yrotation Xrotation
                }
                JOINT LeftEye
                {
                  OFFSET 3.206381 5.380205 7.586883
                  CHANNELS 3 Zrotation Yrotation Xrotation
                }
                JOINT RightEye
                {
                  OFFSET -3.22244 5.361869 7.558234
                  CHANNELS 3 Zrotation Yrotation Xrotation
                }
              }
            }
          }
          JOINT LeftShoulder
          {
            OFFSET 1.621652 23.237164 5.113413
            CHANNELS 3 Zrotation Yrotation Xrotation
            JOINT LeftArm
            {
              OFFSET 14.919846 2e-06 -5.502326
              CHANNELS 3 Zrotation Yrotation Xrotation
              JOINT LeftForeArm
              {
                OFFSET 28.739307 0.0 -0.002588
                CHANNELS 3 Zrotation Yrotation Xrotation
                JOINT LeftHand
                {
                  OFFSET 27.093981 -1e-06 0.002609
                  CHANNELS 3 Zrotation Yrotation Xrotation
                  JOINT LeftHandThumb1
                  {
                    OFFSET 2.276482 -1.392045 3.191413
                    CHANNELS 3 Zrotation Yrotation Xrotation
                    JOINT LeftHandThumb2
                    {
                      OFFSET 4.012836 -1.828127 1.641654
                      CHANNELS 3 Zrotation Yrotation Xrotation
                      JOINT LeftHandThumb3
                      {
                        OFFSET 2.798515 0.0 -3e-06
                        CHANNELS 3 Zrotation Yrotation Xrotation
                        JOINT LeftHandThumbEnd
                        {
                          OFFSET 3.180793 -4e-06 4e-06
                          CHANNELS 3 Zrotation Yrotation Xrotation
                        }
                      }
                    }
                  }
                  JOINT LeftHandIndex1
                  {
                    OFFSET 3.247555 -0.531998 2.296169
                    CHANNELS 3 Zrotation Yrotation Xrotation
                    JOINT LeftHandIndex2
                    {
                      OFFSET 6.364578 0.01206 0.1786
                      CHANNELS 3 Zrotation Yrotation Xrotation
                      JOINT LeftHandIndex3
                      {
                        OFFSET 3.662364 0.0 0.0
                        CHANNELS 3 Zrotation Yrotation Xrotation
                        JOINT LeftHandIndex4
                        {
                          OFFSET 2.329242 4e-06 4e-06
                          CHANNELS 3 Zrotation Yrotation Xrotation
                          JOINT LeftHandIndexEnd
                          {
                            OFFSET 2.759615 -0.180537 -0.113024
                            CHANNELS 3 Zrotation Yrotation Xrotation
                          }
                        }
                      }
                    }
                  }
                  JOINT LeftHandMiddle1
                  {
                    OFFSET 3.163495 0.240981 1.000332
                    CHANNELS 3 Zrotation Yrotation Xrotation
                    JOINT LeftHandMiddle2
                    {
                      OFFSET 6.19078 -0.259278 -1.002548
                      CHANNELS 3 Zrotation Yrotation Xrotation
                      JOINT LeftHandMiddle3
                      {
                        OFFSET 4.35652 -4e-06 -1e-06
                        CHANNELS 3 Zrotation Yrotation Xrotation
                        JOINT LeftHandMiddle4
                        {
                          OFFSET 2.996877 -8e-06 0.0
                          CHANNELS 3 Zrotation Yrotation Xrotation
                          JOINT LeftHandMiddleEnd
                          {
                            OFFSET 2.304287 -0.294569 -0.031741
                            CHANNELS 3 Zrotation Yrotation Xrotation
                          }
                        }
                      }
                    }
                  }
                  JOINT LeftHandRing1
                  {
                    OFFSET 2.882643 -0.053652 -0.322543
                    CHANNELS 3 Zrotation Yrotation Xrotation
                    JOINT LeftHandRing2
                    {
                      OFFSET 5.854541 -0.486202 -1.373841
                      CHANNELS 3 Zrotation Yrotation Xrotation
                      JOINT LeftHandRing3
                      {
                        OFFSET 4.350578 0.0 3e-06
                        CHANNELS 3 Zrotation Yrotation Xrotation
                        JOINT LeftHandRing4
                        {
                          OFFSET 2.651321 7e-06 2e-06
                          CHANNELS 3 Zrotation Yrotation Xrotation
                          JOINT LeftHandRingEnd
                          {
                            OFFSET 1.936105 0.077687 -7.1e-05
                            CHANNELS 3 Zrotation Yrotation Xrotation
                          }
                        }
                      }
                    }
                  }
                  JOINT LeftHandPinky1
                  {
                    OFFSET 2.8655 -0.310005 -1.600378
                    CHANNELS 3 Zrotation Yrotation Xrotation
                    JOINT LeftHandPinky2
                    {
                      OFFSET 5.087849 -1.331141 -1.77123
                      CHANNELS 3 Zrotation Yrotation Xrotation
                      JOINT LeftHandPinky3
                      {
                        OFFSET 3.070974 4e-06 0.0
                        CHANNELS 3 Zrotation Yrotation Xrotation
                        JOINT LeftHandPinky4
                        {
                          OFFSET 1.549672 0.0 1e-06
                          CHANNELS 3 Zrotation Yrotation Xrotation
                          JOINT LeftHandPinkyEnd
                          {
                            OFFSET 1.944893 -0.157802 0.057219
                            CHANNELS 3 Zrotation Yrotation Xrotation
                          }
                        }
                      }
                    }
                  }
                }
              }
            }
          }
          JOINT RightShoulder
          {
            OFFSET -1.380118 23.180309 5.214158
            CHANNELS 3 Zrotation Yrotation Xrotation
            JOINT RightArm
            {
              OFFSET -15.037196 1.2e-05 -5.545604
              CHANNELS 3 Zrotation Yrotation Xrotation
              JOINT RightForeArm
              {
                OFFSET -28.736639 2e-06 -0.002597
                CHANNELS 3 Zrotation Yrotation Xrotation
                JOINT RightHand
                {
                  OFFSET -27.133619 -0.0 0.002613
                  CHANNELS 3 Zrotation Yrotation Xrotation
                  JOINT RightHandThumb1
                  {
                    OFFSET -2.274032 -1.383988 3.163127
                    CHANNELS 3 Zrotation Yrotation Xrotation
                    JOINT RightHandThumb2
                    {
                      OFFSET -4.011429 -1.827466 1.640914
                      CHANNELS 3 Zrotation Yrotation Xrotation
                      JOINT RightHandThumb3
                      {
                        OFFSET -2.794935 -4e-06 -3e-06
                        CHANNELS 3 Zrotation Yrotation Xrotation
                        JOINT RightHandThumbEnd
                        {
                          OFFSET -3.183852 4e-06 1e-06
                          CHANNELS 3 Zrotation Yrotation Xrotation
                        }
                      }
                    }
                  }
                  JOINT RightHandIndex1
                  {
                    OFFSET -3.253266 -0.520057 2.282866
                    CHANNELS 3 Zrotation Yrotation Xrotation
                    JOINT RightHandIndex2
                    {
                      OFFSET -6.341917 0.012471 0.178266
                      CHANNELS 3 Zrotation Yrotation Xrotation
                      JOINT RightHandIndex3
                      {
                        OFFSET -3.654871 -8e-06 -0.0
                        CHANNELS 3 Zrotation Yrotation Xrotation
                        JOINT RightHandIndex4
                        {
                          OFFSET -2.327586 0.0 1e-06
                          CHANNELS 3 Zrotation Yrotation Xrotation
                          JOINT RightHandIndexEnd
                          {
                            OFFSET -2.76179 -0.180656 -0.113078
                            CHANNELS 3 Zrotation Yrotation Xrotation
                          }
                        }
                      }
                    }
                  }
                  JOINT RightHandMiddle1
                  {
                    OFFSET -3.168106 0.246593 1.00103
                    CHANNELS 3 Zrotation Yrotation Xrotation
                    JOINT RightHandMiddle2
                    {
                      OFFSET -6.180828 -0.258836 -1.000895
                      CHANNELS 3 Zrotation Yrotation Xrotation
                      JOINT RightHandMiddle3
                      {
                        OFFSET -4.348901 0.0 -0.0
                        CHANNELS 3 Zrotation Yrotation Xrotation
                        JOINT RightHandMiddle4
                        {
                          OFFSET -3.00024 -4e-06 -2e-06
                          CHANNELS 3 Zrotation Yrotation Xrotation
                          JOINT RightHandMiddleEnd
                          {
                            OFFSET -2.30252 -0.29437 -0.031706
                            CHANNELS 3 Zrotation Yrotation Xrotation
                          }
                        }
                      }
                    }
                  }
                  JOINT RightHandRing1
                  {
                    OFFSET -2.88569 -0.067952 -0.308858
                    CHANNELS 3 Zrotation Yrotation Xrotation
                    JOINT RightHandRing2
                    {
                      OFFSET -5.854198 -0.48613 -1.373731
                      CHANNELS 3 Zrotation Yrotation Xrotation
                      JOINT RightHandRing3
                      {
                        OFFSET -4.33881 -4e-06 -0.0
                        CHANNELS 3 Zrotation Yrotation Xrotation
                        JOINT RightHandRing4
                        {
                          OFFSET -2.654903 -4e-06 4e-06
                          CHANNELS 3 Zrotation Yrotation Xrotation
                          JOINT RightHandRingEnd
                          {
                            OFFSET -1.933568 0.077527 -5.2e-05
                            CHANNELS 3 Zrotation Yrotation Xrotation
                          }
                        }
                      }
                    }
                  }
                  JOINT RightHandPinky1
                  {
                    OFFSET -2.866425 -0.342796 -1.584145
                    CHANNELS 3 Zrotation Yrotation Xrotation
                    JOINT RightHandPinky2
                    {
                      OFFSET -5.091371 -1.332055 -1.772385
                      CHANNELS 3 Zrotation Yrotation Xrotation
                      JOINT RightHandPinky3
                      {
                        OFFSET -3.062664 -4e-06 1e-06
                        CHANNELS 3 Zrotation Yrotation Xrotation
                        JOINT RightHandPinky4
                        {
                          OFFSET -1.546529 4e-06 -2e-06
                          CHANNELS 3 Zrotation Yrotation Xrotation
                          JOINT RightHandPinkyEnd
                          {
                            OFFSET -1.945119 -0.157718 0.057211
                            CHANNELS 3 Zrotation Yrotation Xrotation
                          }
                        }
                      }
                    }
                  }
                }
              }
            }
          }
        }
      }
    }
    JOINT LeftLeg
    {
      OFFSET 10.043214 -8.434526 2.595655
      CHANNELS 3 Zrotation Yrotation Xrotation
      JOINT LeftShin
      {
        OFFSET -1e-06 -43.221752 -0.802913
        CHANNELS 3 Zrotation Yrotation Xrotation
        JOINT LeftFoot
        {
          OFFSET 1e-06 -42.155094 -3.481523
          CHANNELS 3 Zrotation Yrotation Xrotation
          JOINT LeftToeBase
          {
            OFFSET 0.0 -5.059472 13.231529
            CHANNELS 3 Zrotation Yrotation Xrotation
            JOINT LeftToeEnd
            {
              OFFSET -0.009607 -1.647619 6.513017
              CHANNELS 3 Zrotation Yrotation Xrotation
            }
          }
        }
      }
    }
    JOINT RightLeg
    {
      OFFSET -10.047278 -8.29526 2.620317
      CHANNELS 3 Zrotation Yrotation Xrotation
      JOINT RightShin
      {
        OFFSET 1e-06 -43.362206 -0.805556
        CHANNELS 3 Zrotation Yrotation Xrotation
        JOINT RightFoot
        {
          OFFSET 2e-06 -42.117393 -3.478398
          CHANNELS 3 Zrotation Yrotation Xrotation
          JOINT RightToeBase
          {
            OFFSET -0.0 -5.079609 13.284196
            CHANNELS 3 Zrotation Yrotation Xrotation
            JOINT RightToeEnd
            {
              OFFSET 0.009532 -1.634378 6.460591
              CHANNELS 3 Zrotation Yrotation Xrotation
            }
          }
        }
      }
    }
  }
}
MOTION
Frames: 4
Frame Time: 0.03333333333333333
0.0 0.0 0.0 0.0 -0.0 0.0 0.0 100.0 0.0 0.0 -0.0 0.0 0.0 -0.0 0.0 0.0 -0.0 0.0 0.0 -0.0 0.0 0.0 -0.0 0.0 0.0 -0.0 0.0 -0.0 -0.899998 -12.149938 7.7e-05 -2.2e-05 6e-06 -0.0 -0.0 -0.0 -0.0 -0.0 -0.0 -0.0 -0.0 -0.0 0.0 -0.0 0.0 -53.387947 -10.462402 5.069675 -2.14331 0.345981 0.003826 0.0 0.0 -0.0 -5.882106 9.861284 0.70259 -10.936873 -0.360575 7.156205 0.0 8.774823 -1e-06 -1e-06 -0.0 -0.0 -1.844034 2.498504 -2.507278 -10.163599 4.678944 4.621108 -20.976027 -4e-06 2e-06 -21.226292 2.451696 -3.594 0.0 -6e-06 -0.0 -1.362682 2.240797 -0.746323 -21.334913 0.584909 3.008323 -13.821213 -3e-06 2e-06 -23.887171 -0.249079 -0.839482 -1e-06 -0.0 -0.0 -0.294025 1.679686 0.833255 -14.218212 0.093214 1.30058 -34.212051 -0.287565 0.967171 -20.033215 0.964536 1.212845 1e-06 0.0 -0.0 -3.44039 0.788233 0.501655 -15.928189 -3.167309 2.999707 -6.338827 -1e-06 1e-06 -18.123449 3.648181 -4.90567 -4e-06 0.0 -2e-06 0.0 -0.0 0.0 111.426811 27.706366 37.234535 34.705791 18.477484 3.715975 0.0 0.0 0.0 2.243543 -5.255035 -3.180157 14.282891 -0.826594 6.952502 -3e-06 -12.690601 -0.0 0.0 -1e-06 -0.0 1.665666 -1.955921 -2.878299 4.7278 -4.170587 4.993924 11.020526 3e-06 -1e-06 12.109052 -3.735713 -2.866783 -0.0 0.0 -0.0 1.291984 -1.928548 -1.498087 14.800127 0.567469 3.865607 14.24257 -1.341736 -6.660658 19.631969 0.143927 -0.648244 -0.0 0.0 -0.0 0.353028 -1.51115 -0.03194 20.222794 3.684311 2.316629 18.787275 5e-06 0.0 10.751627 -0.479868 1.397906 1e-06 -1e-06 1e-06 3.273807 0.305947 -0.580111 21.486818 11.830376 2.266134 8.162928 2e-06 1e-06 18.399084 -3.798984 -4.940573 2e-06 1e-06 -1e-06 86.365303 -13.670341 12.428481 1.2307 -0.065278 -3.370676 -0.0 0.0 -0.0 -0.0 0.0 -0.0 0.0 0.0 2e-06 0.0 -0.0 0.0 0.0 -0.0 0.0 0.0 -0.0 0.0 0.0 -0.0 0.0 0.0 -0.0 -1e-06 
0.0 0.0 0.0 0.0 -0.0 0.0 -1.019514 99.131989 -0.707762 -1.601081 0.811797 0.433936 0.735568 0.111017 -1.106649 -0.051384 -0.048762 -0.73637 0.520577 0.274643 1.029373 1.107671 -0.194668 0.731272 -0.873558 -1.584306 -0.149448 0.905224 -2.617557 -11.864781 7.7e-05 -2.2e-05 6e-06 -0.004995 -0.135378 0.015089 0.010363 -0.401075 -0.800595 -0.067735 0.132217 -0.760421 0.566848 -1.684691 0.472111 -53.550453 -9.870779 0.917951 -2.784395 -1.506885 0.038274 2.069237 0.397649 -0.226562 -5.882108 9.86129 0.702591 -10.936877 -0.360574 7.156209 1e-06 8.774829 -1e-06 -1.359205 1.164038 0.450499 -1.844032 2.498506 -2.507278 -10.163603 4.678947 4.62111 -20.976034 -4e-06 2e-06 -21.226295 2.451698 -3.594002 0.0 -6e-06 -0.0 -1.362683 2.240798 -0.746324 -21.334923 0.58491 3.008324 -13.821219 -2e-06 1e-06 -23.887182 -0.249079 -0.839484 -3.94145 0.127517 0.075216 -0.294026 1.679688 0.833257 -14.218214 0.093214 1.300581 -34.212059 -0.287564 0.967171 -20.033222 0.964537 1.212844 1e-06 0.0 0.0 -3.440392 0.788234 0.501656 -15.928192 -3.167311 2.999708 -6.338829 -2e-06 1e-06 -18.123453 3.648184 -4.905672 -4e-06 -0.0 -2e-06 0.625832 1.713718 0.094732 108.794037 27.160162 39.464497 32.168663 20.80562 4.183879 0.342062 -1.977134 0.406938 2.243541 -5.255036 -3.180158 14.282887 -0.826594 6.952502 -3e-06 -12.690606 0.0 1.421231 -1.637977 0.880112 1.665666 -1.95592 -2.878299 4.727798 -4.170588 4.993925 11.020525 5e-06 -2e-06 12.10905 -3.735717 -2.866786 0.0 -0.0 -1e-06 1.291986 -1.928548 -1.49809 14.800125 0.567469 3.865608 14.242569 -1.341735 -6.660657 19.631962 0.143928 -0.648244 3.602151 -0.529468 -0.1705 0.353029 -1.51115 -0.031938 20.222786 3.684311 2.316631 18.78727 5e-06 -0.0 10.751624 -0.479867 1.397906 0.0 -0.0 1e-06 3.273805 0.305947 -0.580112 21.486809 11.830376 2.266133 8.162925 2e-06 1e-06 18.399076 -3.798986 -4.940574 2e-06 1e-06 1e-06 89.911789 -9.997022 12.956126 1.654332 -1.979931 -1.652102 1.266537 -5.809412 -1.869474 0.332066 -0.160679 -1.522626 0.0 -0.0 2e-06 2.354331 -3.820843 -6.10797 -0.060694 0.065957 10.619434 -0.795101 3.077457 -4.206762 -0.112337 0.090989 0.017975 0.0 -0.0 -1e-06 
0.0 0.0 0.0 0.0 -0.0 0.0 -2.519869 98.979881 -2.043816 -3.072595 2.548924 0.959539 1.083449 0.260844 -2.256651 -0.133089 -0.107243 -1.402529 0.409651 0.230863 1.731857 2.19076 -0.800112 1.008066 -1.210955 -2.254709 -0.480837 2.205805 -3.67597 -10.409199 7.7e-05 -2.3e-05 6e-06 -0.025968 -0.130245 0.03342 0.012676 -0.668887 -1.595472 -0.103699 0.418942 -1.537807 -0.232543 -2.651493 0.485432 -53.129311 -10.519606 -0.1351 -2.415885 -5.019945 0.093727 3.660954 0.598974 -3.667917 -5.882109 9.861287 0.702591 -10.936876 -0.360575 7.156209 1e-06 8.774827 -0.0 -2.849859 2.728302 0.776487 -1.844032 2.498504 -2.507279 -10.163605 4.678947 4.62111 -20.976034 -4e-06 2e-06 -21.226295 2.451696 -3.594001 1e-06 -6e-06 -0.0 -1.362682 2.240798 -0.746324 -21.334925 0.584909 3.008324 -13.82122 -2e-06 2e-06 -23.887182 -0.249079 -0.839482 -7.861978 0.893352 -0.000443 -0.294025 1.679688 0.833256 -14.218215 0.093215 1.300581 -34.212067 -0.287564 0.967171 -20.033222 0.964537 1.212844 1e-06 0.0 -0.0 -3.44039 0.788233 0.501655 -15.928192 -3.16731 2.999708 -6.338829 1e-06 2e-06 -18.123457 3.648183 -4.905673 -4e-06 0.0 -2e-06 1.496512 3.34084 0.5924 105.74131 26.595587 40.134861 29.391827 24.388367 5.151516 0.514226 -3.969802 1.246368 2.243542 -5.255037 -3.180158 14.282894 -0.826595 6.952505 -4e-06 -12.690605 1e-06 2.966608 -2.837917 1.30162 1.665666 -1.955924 -2.878299 4.7278 -4.170587 4.993924 11.020529 5e-06 -1e-06 12.109053 -3.735717 -2.866784 -1e-06 0.0 -1e-06 1.291986 -1.928548 -1.498089 14.800134 0.567471 3.865608 14.242576 -1.341735 -6.660658 19.631973 0.143926 -0.648245 7.045647 -0.986648 -0.635607 0.353028 -1.511152 -0.031941 20.222799 3.684313 2.31663 18.787279 6e-06 -1e-06 10.751631 -0.479868 1.397906 1e-06 -1e-06 1e-06 3.273808 0.305949 -0.58011 21.48682 11.83038 2.266135 8.16293 2e-06 1e-06 18.399088 -3.798984 -4.940574 2e-06 -0.0 -1e-06 90.887245 -9.093248 14.993855 1.743334 -2.88652 2.301478 4.279049 -4.489017 -3.099864 0.370496 -0.314942 -1.949461 -0.0 -0.0 2e-06 4.986517 -7.492903 -7.025093 -0.076086 -0.096447 9.552539 -2.214869 5.781644 -1.450446 -0.244702 0.111292 0.142361 -0.0 -0.0 -1e-06 
0.0 0.0 0.0 0.0 -0.0 0.0 -3.781515 98.788933 -3.410867 -3.701282 4.539338 1.469714 1.093131 0.376486 -3.221354 -0.320867 -0.04271 -2.126876 -0.20289 0.03925 2.260275 3.248742 -1.079136 1.035179 -1.409129 -2.836899 -0.717603 3.009678 -4.593879 -8.779688 7.7e-05 -2.2e-05 6e-06 -0.033341 -0.05835 0.028772 0.041508 -0.862521 -2.375075 -0.122208 0.753307 -2.309122 -1.298038 -3.303499 0.87022 -52.299824 -11.672185 -0.562525 -2.156368 -8.592923 0.104023 4.56995 1.098171 -7.026317 -5.882107 9.861285 0.702591 -10.936874 -0.360575 7.156204 1e-06 8.774826 -0.0 -4.379444 3.892546 1.132503 -1.844034 2.498504 -2.507278 -10.163603 4.678945 4.621108 -20.97603 -4e-06 1e-06 -21.226294 2.451696 -3.594 1e-06 -6e-06 -0.0 -1.362683 2.240798 -0.746324 -21.334921 0.58491 3.008322 -13.821218 -3e-06 1e-06 -23.88718 -0.24908 -0.839485 -12.192018 1.332542 -0.176291 -0.294024 1.679687 0.833255 -14.218212 0.093214 1.30058 -34.212063 -0.287565 0.967168 -20.033218 0.964534 1.212842 1e-06 1e-06 0.0 -3.44039 0.788234 0.501655 -15.928189 -3.16731 2.999705 -6.338829 -0.0 0.0 -18.123453 3.64818 -4.905673 -3e-06 1e-06 -2e-06 2.532274 4.398925 1.197317 102.966599 25.952908 40.28764 26.518847 28.091042 5.848455 -0.158689 -4.978674 1.684579 2.243543 -5.255036 -3.180158 14.282898 -0.826596 6.952507 -3e-06 -12.69061 3e-06 4.300134 -4.049104 1.6852 1.665666 -1.955923 -2.878299 4.727802 -4.170589 4.993926 11.020531 4e-06 1e-06 12.109056 -3.735718 -2.866783 0.0 -1e-06 -1e-06 1.291987 -1.92855 -1.498088 14.800136 0.567468 3.86561 14.242579 -1.341734 -6.660655 19.631977 0.143924 -0.648241 10.71961 -1.358934 -1.06586 0.353029 -1.51115 -0.031939 20.222801 3.68431 2.316633 18.787281 3e-06 2e-06 10.751632 -0.47987 1.397908 -1e-06 -0.0 0.0 3.273809 0.305948 -0.58011 21.486826 11.83038 2.266134 8.16293 2e-06 -0.0 18.39909 -3.798988 -4.940575 3e-06 1e-06 1e-06 89.948921 -8.870965 17.338385 1.493414 -3.42081 5.872945 6.834811 -3.39623 -2.839039 0.547648 -0.396521 -2.0794 -0.0 0.0 4e-06 6.707219 -10.339551 -9.101453 -0.103921 -0.220169 10.581404 -3.290874 7.26272 -0.570177 -0.338956 0.11997 0.286635 0.0 0.0 -1e-06 
